<svg width="264" height="77" viewBox="0 0 264 77" fill="none" xmlns="http://www.w3.org/2000/svg">
<path d="M135 77L169 37L173.5 41.5L193 9.5L188 7L203 0L206.5 16L201 13L172 49.5L167 45.5L135 77Z" fill="#82A0B1"/>
<path fill-rule="evenodd" clip-rule="evenodd" d="M0 68.808V10.008H25.452C30.716 10.008 35.252 10.876 39.06 12.612C42.868 14.292 45.808 16.728 47.88 19.92C49.952 23.112 50.988 26.92 50.988 31.344C50.988 35.712 49.952 39.492 47.88 42.684C45.808 45.876 42.868 48.34 39.06 50.076C35.252 51.756 30.716 52.596 25.452 52.596H13.608V68.808H0ZM24.696 41.508H13.608V21.096H24.696C28.896 21.096 32.032 21.992 34.104 23.784C36.176 25.576 37.212 28.096 37.212 31.344C37.212 34.536 36.176 37.028 34.104 38.82C32.032 40.612 28.896 41.508 24.696 41.508ZM60.7031 68.808V10.008H74.3111V68.808H60.7031ZM80.2915 10.008L105.66 68.808H119.1L144.552 10.008H131.028L112.874 52.0048L94.9915 10.008H80.2915Z" fill="#293A4A"/>
<path d="M212.223 21.096V10.008H263.463V21.096H244.647V68.808H231.039V21.096H212.223Z" fill="#293A4A"/>
<path d="M154.181 61.164C157.093 63.908 160.509 66.036 164.429 67.548C168.405 69.06 172.717 69.816 177.365 69.816C181.957 69.816 186.185 69.06 190.049 67.548C193.969 66.036 197.357 63.936 200.213 61.248C203.125 58.504 205.393 55.284 207.017 51.588C208.641 47.836 209.453 43.776 209.453 39.408C209.453 34.984 208.641 30.952 207.017 27.312C205.393 23.616 203.125 20.396 200.213 17.652C200.16 17.6011 199.553 17.0505 199.5 17L191.5 27C192.474 28.2784 193.638 30.1997 194.249 31.764C195.201 34.06 195.677 36.608 195.677 39.408C195.677 42.208 195.201 44.756 194.249 47.052C193.353 49.348 192.065 51.336 190.385 53.016C188.705 54.696 186.745 55.984 184.505 56.88C182.321 57.776 179.913 58.224 177.281 58.224C174.649 58.224 172.213 57.776 169.973 56.88C167.733 55.984 165.773 54.696 164.093 53.016C163.63 52.537 163.194 52.033 162.786 51.504L153.511 60.5C153.73 60.7243 153.953 60.9457 154.181 61.164Z" fill="#293A4A"/>
<path d="M190.049 11.268C186.185 9.756 181.929 9 177.281 9C172.689 9 168.433 9.756 164.513 11.268C160.593 12.78 157.177 14.908 154.265 17.652C151.353 20.396 149.085 23.616 147.461 27.312C145.893 31.008 145.109 35.04 145.109 39.408C145.109 43.776 145.893 47.808 147.461 51.504C148.325 53.4708 149.364 55.3028 150.577 57L159.762 45.6759C159.177 43.7146 158.885 41.6253 158.885 39.408C158.885 36.608 159.333 34.06 160.229 31.764C161.181 29.468 162.497 27.48 164.177 25.8C165.857 24.12 167.789 22.832 169.973 21.936C172.213 21.04 174.649 20.592 177.281 20.592C179.702 20.592 181.957 20.971 184.046 21.7291L190.049 11.268Z" fill="#293A4A"/>
</svg>
